# xmcd
#
# Track frame offsets: 
#        225
#        22124
#        42510
#        60083
#        86701
#        102314
#        129826
#        151416
#        175683
#        197657
#        212867
#        243284
#        258731
#        284942
#        308827
#
# Disc length: 4503 seconds
#
# Revision: 1
# Processed by: cddbd v1.5.2PL0 Copyright (c) Steve Scherf et al.
# Submitted via: ExactAudioCopy v0.99pb4
#
DISCID=d711940f
DTITLE=Paul deLay - The Last Of The Best
DYEAR=2007
DGENRE=Blues
TTITLE0=Good Thing
TTITLE1=Trouble No More
TTITLE2=Look What You've Done
TTITLE3=Brave Woman
TTITLE4=Life Is Just A Struggle
TTITLE5=Life's Highway
TTITLE6=All Cried Out
TTITLE7=Come Down
TTITLE8=You Got Me So Bad, Baby
TTITLE9=Could We Just Shoot Your Husband
TTITLE10=Can't Stand Your Evil Ways
TTITLE11=Lost In A Dream
TTITLE12=Asked For Water (She Gave Me Gasoline)
TTITLE13=You'll Be Mine
TTITLE14=Try Not To Kill Me
EXTD=
EXTT0=
EXTT1=
EXTT2=
EXTT3=
EXTT4=
EXTT5=
EXTT6=
EXTT7=
EXTT8=
EXTT9=
EXTT10=
EXTT11=
EXTT12=
EXTT13=
EXTT14=
PLAYORDER=
